<?xml version="1.0" encoding="UTF-8"?><svg id="a" xmlns="http://www.w3.org/2000/svg" viewBox="0 0 1390.14 1420.8"><defs><style>.b{fill:#fff;}.c{fill:#f39200;}.c,.d,.e{stroke:#fff;stroke-miterlimit:10;stroke-width:5px;}.d{fill:#e6e6e6;}.e{fill:#2d2e82;}</style></defs><path class="d" d="M869.64,1324.48s108.01-60.97,197.01-17.97,321,39,321,39V2.51s-310.76-1.59-391.38,38.21-68.62,327.79-68.62,327.79c0,0-160.23,363.15-167.62,374.57s-196.1,205.75-196.1,205.75l-6.82,199.17,95.04,21.63,217.49,154.83Z"/><g><path class="e" d="M912.48,744.02c20.77-28.46,31.16-32.79,31.16-32.79l36.62-8.94s34.23-16.42,42.1-40.04,0-63.19,0-63.19l69.97,9.84,24.49-74.35s29.74,29.74,41.11-7.87c11.37-37.61,42.86-59.48,42.86-59.48l-31.49-56.85s-23.62-28.86-17.49-41.11c3.54-7.09,11.49-16.52,17.55-23.21,3.15-3.47,7.99-3.94,12.44-2.46,1.2,.4-1-6.03-15.99-35.55-13.42-26.42-25.23-46.61-33.89-60.47-7.17-11.47-1.36-26.61,11.63-30.37h0c16-4.64,22.15-24.06,11.72-37.06l-88.29-110.01s-27.01-19.81-70.7-29.39c-61.18,35.56-113.65,68.66-113.65,68.66l-48.45,72.93s-1.05,13.31-3.85,12.96-16.46,4.2-18.21,7.36-26.97,16.81-26.97,16.81c0,0-39.23,14.71-42.73,19.26-3.5,4.55-11.56,9.46-16.11,10.86-4.55,1.4-27.32,4.55-27.32,4.55,0,0-8.76-3.15-7.71,5.25,1.05,8.41,16.46,13.31,16.46,13.31l20.66,9.11-2.87,2.01c-.41,.28-.9,.41-1.39,.34-4.65-.64-29.23-4.15-32.95-7.95-4.12-4.2-8.67,.35-8.67,.35l-10.16,21.72s-30.12,20.66-35.02,24.87c-4.9,4.2-14.01,8.76-23.47,14.01-9.46,5.25-22.07,10.86-28.37,12.61-6.3,1.75-16.46,3.85-17.86,5.25-1.4,1.4-11.91,0-11.91,0,0,0-.7-9.96-22.77,.62-11.53,5.53-15.02,7.4-15.73,7.93-3.69,.56-16.24,2.56-16.84,4.05-.7,1.75-29.77,21.01-29.77,21.01l-34.32,18.91-14.71,9.81s-7.71,3.5-13.66,6.3c-5.95,2.8-18.56,9.11-18.56,9.11l-18.21,2.45h-8.76l-28.02,11.91h-10.16s-5.6,19.96-7.71,22.07c-2.1,2.1-11.56-.35-11.56,0s-25.22,19.96-25.92,22.07c-.7,2.1-2.8,7.71-2.8,7.71,0,0-9.81,5.95-15.41,16.81-5.6,10.86-18.21,15.76-18.21,15.76,0,0-9.46,7.36-11.21,11.91-1.75,4.55-5.25,13.31-6.65,19.26-1.4,5.95-9.11,23.12-7,27.32,2.1,4.2-.36,23.47-.36,23.47l-6.99,16.46s-2.1,3.15-8.76,0c-6.65-3.15,0,10.16,0,10.16l-4.9,23.82s.7,12.26,2.1,15.06c1.4,2.8,7,13.66-.7,25.57-7.71,11.91-15.76,37.48-15.76,37.48l-63.39,123.64s-21.36,38.18-22.77,43.43c-1.4,5.25-34.32,85.11-34.32,85.11l-51.84,118.38s-18.91,48.33,3.15,75.65c0,0,21.71,12.26,27.67,11.21,5.95-1.05,23.82,27.32,22.77,32.57-1.05,5.25,6.3,7.36,6.3,7.36,0,0,5.25,19.26,8.41,23.12,3.15,3.85,7.71,4.2,7.71,4.2l23.12-9.81s8.76,6.65,6.65,6.65-7.36,.7-7.36,.7c0,0,2.45,5.25-1.05,5.25h-11.91l-1.05,6.65,70.75,14.71s-5.6,2.8-5.95,5.95-15.41,0-15.41,0c0,0-1.05,5.25,2.45,5.6,3.5,.35,33.27,7,33.27,7,0,0,19.96,1.05,21.01,0,1.05-1.05,8.41-10.51,11.21-12.61,2.8-2.1,12.61-3.85,12.61-3.85h12.61l6.3,1.75s6.65,10.16,7,11.21c.35,1.05,2.1,10.86,.35,9.81s-14.71-5.95-14.71-5.95c0,0-11.91,6.3-19.96,8.76-8.06,2.45-26.97,7.71-28.02,6.3-1.05-1.4-36.43-8.06-36.43-8.06,0,0-21.36-.7-23.82-5.6-2.45-4.9-11.56-10.16-11.56-10.16-1.18,.35-2.44-.09-3.14-1.1-.69-.99-2.43-2.35-6.31-4.16-9.81-4.55-20.31-11.91-20.31-11.91l-7-.35s9.11,9.46,11.21,10.51c2.1,1.05,17.51,15.06,17.51,15.06,0,0,18.91,28.02,22.42,29.07,3.5,1.05,47.63,7.36,47.63,7.36,0,0,66.9,15.41,70.75,15.06,3.85-.35-2.45,12.96-2.45,12.96,0,0,73.2,7,81.96,2.45,8.76-4.55,41.68,13.31,41.68,13.31,0,0,65.5,8.41,69.35,11.56,3.85,3.15,41.68,17.51,41.68,17.51h150.71s167.47-49.08,237.8-93.83c18.51-37.49,39.76-88.64,34.64-117.31-8.09-45.29-14.79-51.16-17.49-54.23-.21-.24-11.99-16.67-12.29-16.78-4.44-1.7-28.69-22.01-47.18-48.82-17.49-25.37-23.62-36.74-13.99-78.72,9.62-41.98-31.49-31.49-31.49-31.49,0,0-45.48,3.5-55.1-33.67-5.18-20.02-13.35-42.71-19.78-59.38-4.85-12.58,4.58-26.1,18.06-25.84,7.41,.14,16.45,.62,27.3,1.69,50.18,4.96,95.34-16.54,98.62-25.37,.19-.51,37.1-54,37.61-54.21l23.11-35.67c.33-.14,.62-.37,.83-.66Z"/><path class="c" d="M1116.82,534.55s29.74,29.74,41.11-7.87c11.37-37.61,42.86-59.48,42.86-59.48l-31.49-56.85s-23.62-28.86-17.49-41.11c3.55-7.09,11.49-16.53,17.55-23.21,3.12-3.44,8.29-4.83,12.32-2.52,1.44,.83-.41-5.06-15.87-35.49-13.42-26.42-25.23-46.61-33.89-60.47-7.17-11.47-1.36-26.61,11.63-30.37h0c16.13-4.03,22.66-23.42,12.25-36.39l-88.83-110.68s-27.01-19.81-70.7-29.39c-61.18,35.56-113.65,68.66-113.65,68.66l-48.45,72.93s-1.05,13.31-3.85,12.96-16.46,4.2-18.21,7.36-26.97,16.81-26.97,16.81c0,0-39.23,14.71-42.73,19.26-3.5,4.55-11.56,9.46-16.11,10.86-4.55,1.4-27.32,4.55-27.32,4.55,0,0-8.76-3.15-7.71,5.25,1.05,8.41,16.46,13.31,16.46,13.31l20.66,9.11-2.87,2.01c-.41,.28-.9,.41-1.39,.34-4.65-.64-29.23-4.15-32.95-7.95-4.12-4.2-8.67,.35-8.67,.35l-10.16,21.72s-30.12,20.66-35.02,24.87c-4.9,4.2-14.01,8.76-23.47,14.01-9.46,5.25-22.07,10.86-28.37,12.61-6.3,1.75-16.46,3.85-17.86,5.25-1.4,1.4-11.91,0-11.91,0,0,0-.7-9.96-22.77,.62-11.53,5.53-15.02,7.4-15.73,7.93-3.69,.56-16.24,2.56-16.84,4.05-.7,1.75-29.77,21.01-29.77,21.01l-14.74,8.12c.42,27.02,3.57,62.38,16.32,70.49,19.24,12.25-39.36,67.35-39.36,67.35l9.62,39.36h33.62l115.95-43.73s54.23,10.5,58.6,20.12c4.37,9.62,77.85-33.24,81.34-53.35,3.5-20.12,36.74,15.74,36.74,15.74,0,0,55.1-69.1,55.1-86.59s57.73-7.87,65.6-7.87,58.6-1.75,58.6-1.75c0,0,12.25,30.61,27.99,36.74,15.74,6.12,48.98,35.86,48.98,35.86,0,0-61.23,20.12-67.35,31.49-6.12,11.37,10.5,23.62,10.5,23.62l36.95,29.74,18.11,24.94,69.14,10.04,24.49-74.35Z"/></g><g><g><path class="b" d="M127.03,1193.18h3.13v21.63h10.37v2.63h-13.5v-24.26Z"/><path class="b" d="M156.58,1206.07h-9.43v8.75h10.51v2.63h-13.64v-24.26h13.1v2.63h-9.97v7.67h9.43v2.59Z"/><path class="b" d="M172.49,1193.18v10.15h11.73v-10.15h3.17v24.26h-3.17v-11.37h-11.73v11.37h-3.13v-24.26h3.13Z"/><path class="b" d="M196.76,1209.81l-2.52,7.63h-3.24l8.24-24.26h3.78l8.28,24.26h-3.35l-2.59-7.63h-8.6Zm7.96-2.45l-2.38-6.98c-.54-1.58-.9-3.02-1.26-4.43h-.07c-.36,1.44-.76,2.92-1.22,4.39l-2.38,7.02h7.31Z"/><path class="b" d="M218.29,1217.44l-7.92-24.26h3.38l3.78,11.95c1.04,3.28,1.94,6.23,2.59,9.07h.07c.68-2.81,1.69-5.87,2.77-9.04l4.1-11.99h3.35l-8.67,24.26h-3.46Z"/><path class="b" d="M233.05,1193.51c1.58-.32,3.85-.5,6.01-.5,3.35,0,5.51,.61,7.02,1.98,1.22,1.08,1.91,2.74,1.91,4.61,0,3.2-2.02,5.33-4.57,6.19v.11c1.87,.65,2.99,2.38,3.56,4.9,.79,3.38,1.37,5.72,1.87,6.66h-3.24c-.4-.68-.94-2.77-1.62-5.8-.72-3.35-2.02-4.61-4.86-4.71h-2.95v10.51h-3.13v-23.94Zm3.13,11.05h3.2c3.35,0,5.47-1.84,5.47-4.61,0-3.13-2.27-4.5-5.58-4.54-1.51,0-2.59,.14-3.1,.29v8.86Z"/><path class="b" d="M264.98,1206.07h-9.43v8.75h10.51v2.63h-13.64v-24.26h13.1v2.63h-9.97v7.67h9.43v2.59Z"/></g><g><path class="b" d="M760.03,278.18h13.07v2.63h-9.94v8.06h9.18v2.59h-9.18v10.98h-3.13v-24.26Z"/><path class="b" d="M790.12,291.07h-9.43v8.75h10.51v2.63h-13.64v-24.26h13.1v2.63h-9.97v7.67h9.43v2.59Zm-.61-18.39l-4.57,4.21h-2.59l3.35-4.21h3.82Z"/><path class="b" d="M812.23,301.65c-1.15,.58-3.46,1.15-6.41,1.15-6.84,0-11.99-4.32-11.99-12.27s5.15-12.74,12.67-12.74c3.02,0,4.93,.65,5.76,1.08l-.76,2.56c-1.19-.58-2.88-1.01-4.89-1.01-5.69,0-9.47,3.64-9.47,10.01,0,5.94,3.42,9.75,9.32,9.75,1.91,0,3.85-.4,5.11-1.01l.65,2.48Z"/><path class="b" d="M820.22,294.81l-2.52,7.63h-3.24l8.24-24.26h3.78l8.28,24.26h-3.35l-2.59-7.63h-8.6Zm7.96-2.45l-2.38-6.98c-.54-1.58-.9-3.02-1.26-4.43h-.07c-.36,1.44-.76,2.92-1.22,4.39l-2.38,7.02h7.31Z"/><path class="b" d="M858.63,291.79c-.18-3.38-.4-7.45-.36-10.47h-.11c-.83,2.84-1.84,5.87-3.06,9.21l-4.28,11.77h-2.38l-3.92-11.55c-1.15-3.42-2.12-6.55-2.81-9.43h-.07c-.07,3.02-.25,7.09-.47,10.73l-.65,10.4h-2.99l1.69-24.26h4l4.14,11.73c1.01,2.99,1.84,5.65,2.45,8.17h.11c.61-2.45,1.48-5.11,2.56-8.17l4.32-11.73h4l1.51,24.26h-3.06l-.61-10.65Z"/><path class="b" d="M867.13,278.47c1.51-.25,3.49-.47,6.01-.47,3.1,0,5.36,.72,6.8,2.02,1.33,1.15,2.12,2.92,2.12,5.08s-.65,3.92-1.87,5.18c-1.66,1.76-4.36,2.66-7.42,2.66-.94,0-1.8-.04-2.52-.22v9.72h-3.13v-23.97Zm3.13,11.7c.68,.18,1.55,.25,2.59,.25,3.78,0,6.08-1.84,6.08-5.18s-2.27-4.75-5.72-4.75c-1.37,0-2.41,.11-2.95,.25v9.43Z"/></g><g><path class="b" d="M290.48,866.65c-1.15,.58-3.46,1.15-6.41,1.15-6.84,0-11.99-4.32-11.99-12.28s5.15-12.74,12.67-12.74c3.02,0,4.93,.65,5.76,1.08l-.76,2.56c-1.19-.58-2.88-1.01-4.9-1.01-5.69,0-9.47,3.64-9.47,10.01,0,5.94,3.42,9.75,9.32,9.75,1.91,0,3.85-.4,5.11-1.01l.65,2.48Z"/><path class="b" d="M294.41,843.51c1.58-.32,3.85-.5,6.01-.5,3.35,0,5.51,.61,7.02,1.98,1.22,1.08,1.91,2.74,1.91,4.61,0,3.2-2.02,5.33-4.57,6.19v.11c1.87,.65,2.99,2.38,3.56,4.9,.79,3.38,1.37,5.72,1.87,6.66h-3.24c-.4-.68-.94-2.77-1.62-5.8-.72-3.35-2.02-4.61-4.86-4.71h-2.95v10.51h-3.13v-23.94Zm3.13,11.05h3.2c3.35,0,5.47-1.84,5.47-4.61,0-3.13-2.27-4.5-5.58-4.54-1.51,0-2.59,.14-3.1,.29v8.86Z"/><path class="b" d="M316.9,843.18v24.26h-3.13v-24.26h3.13Z"/><path class="b" d="M342.39,871.01c-3.28-.86-6.48-1.84-9.29-2.81-.5-.18-1.01-.36-1.48-.36-5.76-.21-10.69-4.46-10.69-12.27s4.75-12.78,11.3-12.78,10.87,5.11,10.87,12.28c0,6.23-2.88,10.22-6.91,11.63v.14c2.41,.61,5.04,1.19,7.09,1.55l-.9,2.63Zm-2.59-15.8c0-4.86-2.52-9.86-7.67-9.86s-7.88,4.89-7.85,10.15c-.04,5.15,2.81,9.79,7.7,9.79s7.81-4.54,7.81-10.08Z"/><path class="b" d="M350.31,843.18v14.36c0,5.44,2.41,7.74,5.65,7.74,3.6,0,5.9-2.38,5.9-7.74v-14.36h3.17v14.15c0,7.45-3.92,10.51-9.18,10.51-4.97,0-8.71-2.84-8.71-10.37v-14.29h3.17Z"/><path class="b" d="M383.04,856.07h-9.43v8.75h10.51v2.63h-13.64v-24.26h13.1v2.63h-9.97v7.67h9.43v2.59Z"/><path class="b" d="M393.37,845.85h-7.38v-2.66h17.96v2.66h-7.42v21.6h-3.17v-21.6Z"/><path class="b" d="M426.41,855.06c0,8.35-5.08,12.78-11.27,12.78s-10.91-4.97-10.91-12.31c0-7.7,4.79-12.74,11.27-12.74s10.91,5.08,10.91,12.28Zm-18.83,.4c0,5.18,2.81,9.83,7.74,9.83s7.78-4.57,7.78-10.08c0-4.82-2.52-9.86-7.74-9.86s-7.77,4.79-7.77,10.11Z"/><path class="b" d="M434.19,845.85h-7.38v-2.66h17.96v2.66h-7.42v21.6h-3.17v-21.6Z"/><path class="b" d="M454.71,853.84v2.34h-8.89v-2.34h8.89Z"/><path class="b" d="M288.54,886.38h3.13v21.63h10.37v2.63h-13.5v-24.26Z"/><path class="b" d="M305.71,885.99c-.83,3.02-2.38,6.88-3.38,8.53l-2.02,.25c.79-2.12,1.73-5.87,2.12-8.46l3.28-.32Z"/><path class="b" d="M321.84,899.27h-9.43v8.75h10.51v2.63h-13.64v-24.26h13.1v2.63h-9.97v7.67h9.43v2.59Z"/><path class="b" d="M326.55,906.83c1.4,.86,3.46,1.58,5.62,1.58,3.2,0,5.08-1.69,5.08-4.14,0-2.27-1.3-3.56-4.57-4.82-3.96-1.4-6.41-3.46-6.41-6.88,0-3.78,3.13-6.59,7.85-6.59,2.48,0,4.28,.58,5.36,1.19l-.86,2.55c-.79-.43-2.41-1.15-4.61-1.15-3.31,0-4.57,1.98-4.57,3.64,0,2.27,1.48,3.38,4.82,4.68,4.1,1.58,6.19,3.56,6.19,7.13,0,3.74-2.77,6.98-8.49,6.98-2.34,0-4.9-.68-6.19-1.55l.79-2.63Z"/><path class="b" d="M344.73,910.64v-24.26h3.42l7.77,12.27c1.8,2.84,3.2,5.4,4.36,7.88l.07-.04c-.29-3.24-.36-6.19-.36-9.97v-10.15h2.95v24.26h-3.17l-7.7-12.31c-1.69-2.7-3.31-5.47-4.54-8.1l-.11,.04c.18,3.06,.25,5.97,.25,10.01v10.37h-2.95Z"/><path class="b" d="M380.98,899.27h-9.43v8.75h10.51v2.63h-13.64v-24.26h13.1v2.63h-9.97v7.67h9.43v2.59Z"/><path class="b" d="M391.78,910.64l-7.92-24.26h3.38l3.78,11.95c1.04,3.28,1.94,6.23,2.59,9.07h.07c.68-2.81,1.69-5.87,2.77-9.03l4.1-11.99h3.35l-8.67,24.26h-3.46Z"/><path class="b" d="M408.42,903.01l-2.52,7.63h-3.24l8.24-24.26h3.78l8.28,24.26h-3.35l-2.59-7.63h-8.6Zm7.96-2.45l-2.38-6.98c-.54-1.58-.9-3.02-1.26-4.43h-.07c-.36,1.44-.76,2.92-1.22,4.39l-2.38,7.02h7.31Z"/><path class="b" d="M426.52,886.38h3.13v21.63h10.37v2.63h-13.5v-24.26Z"/></g><g><path class="b" d="M539.41,1122.63c1.4,.86,3.46,1.58,5.62,1.58,3.2,0,5.08-1.69,5.08-4.14,0-2.27-1.3-3.56-4.57-4.82-3.96-1.4-6.41-3.46-6.41-6.88,0-3.78,3.13-6.59,7.85-6.59,2.48,0,4.28,.58,5.36,1.19l-.86,2.56c-.79-.43-2.41-1.15-4.61-1.15-3.31,0-4.57,1.98-4.57,3.64,0,2.27,1.48,3.38,4.82,4.68,4.1,1.58,6.19,3.56,6.19,7.13,0,3.74-2.77,6.98-8.49,6.98-2.34,0-4.9-.68-6.19-1.55l.79-2.63Z"/><path class="b" d="M561.52,1118.81l-2.52,7.63h-3.24l8.24-24.26h3.78l8.28,24.26h-3.35l-2.59-7.63h-8.6Zm7.96-2.45l-2.38-6.98c-.54-1.58-.9-3.02-1.26-4.43h-.07c-.36,1.44-.76,2.92-1.22,4.39l-2.38,7.02h7.31Z"/><path class="b" d="M582.76,1102.18v24.26h-3.13v-24.26h3.13Z"/><path class="b" d="M588.23,1126.44v-24.26h3.42l7.77,12.27c1.8,2.84,3.2,5.4,4.35,7.88l.07-.04c-.29-3.24-.36-6.19-.36-9.97v-10.15h2.95v24.26h-3.17l-7.7-12.31c-1.69-2.7-3.31-5.47-4.54-8.1l-.11,.04c.18,3.06,.25,5.98,.25,10.01v10.37h-2.95Z"/><path class="b" d="M616.52,1104.85h-7.38v-2.66h17.96v2.66h-7.42v21.6h-3.17v-21.6Z"/><path class="b" d="M635.21,1115.54v2.34h-8.89v-2.34h8.89Z"/><path class="b" d="M639.02,1102.51c1.58-.32,3.85-.5,6.01-.5,3.35,0,5.51,.61,7.02,1.98,1.22,1.08,1.91,2.74,1.91,4.61,0,3.2-2.02,5.33-4.57,6.19v.11c1.87,.65,2.99,2.38,3.56,4.9,.79,3.38,1.37,5.72,1.87,6.66h-3.24c-.4-.68-.94-2.77-1.62-5.8-.72-3.35-2.02-4.61-4.86-4.71h-2.95v10.51h-3.13v-23.94Zm3.13,11.05h3.2c3.35,0,5.47-1.84,5.47-4.61,0-3.13-2.27-4.5-5.58-4.54-1.51,0-2.59,.14-3.1,.29v8.86Z"/><path class="b" d="M679.23,1114.06c0,8.35-5.08,12.78-11.27,12.78s-10.91-4.97-10.91-12.31c0-7.7,4.79-12.74,11.27-12.74s10.91,5.08,10.91,12.28Zm-18.83,.4c0,5.18,2.81,9.83,7.74,9.83s7.78-4.57,7.78-10.08c0-4.82-2.52-9.86-7.74-9.86s-7.78,4.79-7.78,10.11Z"/><path class="b" d="M703.75,1115.79c-.18-3.38-.4-7.45-.36-10.47h-.11c-.83,2.84-1.84,5.87-3.06,9.21l-4.28,11.77h-2.38l-3.92-11.55c-1.15-3.42-2.12-6.55-2.81-9.43h-.07c-.07,3.02-.25,7.09-.47,10.73l-.65,10.4h-2.99l1.69-24.26h4l4.14,11.73c1.01,2.99,1.84,5.65,2.45,8.17h.11c.61-2.45,1.48-5.11,2.56-8.17l4.32-11.73h4l1.51,24.26h-3.06l-.61-10.66Z"/><path class="b" d="M715.81,1118.81l-2.52,7.63h-3.24l8.24-24.26h3.78l8.28,24.26h-3.35l-2.59-7.63h-8.6Zm7.96-2.45l-2.38-6.98c-.54-1.58-.9-3.02-1.26-4.43h-.07c-.36,1.44-.76,2.92-1.22,4.39l-2.38,7.02h7.31Z"/><path class="b" d="M737.05,1102.18v24.26h-3.13v-24.26h3.13Z"/><path class="b" d="M742.52,1126.44v-24.26h3.42l7.78,12.27c1.8,2.84,3.2,5.4,4.36,7.88l.07-.04c-.29-3.24-.36-6.19-.36-9.97v-10.15h2.95v24.26h-3.17l-7.7-12.31c-1.69-2.7-3.31-5.47-4.54-8.1l-.11,.04c.18,3.06,.25,5.98,.25,10.01v10.37h-2.95Z"/><path class="b" d="M553.98,1145.71c1.91-.29,4.18-.5,6.66-.5,4.5,0,7.7,1.04,9.83,3.02,2.16,1.98,3.42,4.79,3.42,8.71s-1.22,7.2-3.49,9.43c-2.27,2.27-6.01,3.49-10.73,3.49-2.23,0-4.1-.11-5.69-.29v-23.87Zm3.13,21.45c.79,.14,1.94,.18,3.17,.18,6.7,0,10.33-3.74,10.33-10.29,.04-5.72-3.2-9.36-9.83-9.36-1.62,0-2.84,.14-3.67,.32v19.15Z"/><path class="b" d="M590.51,1158.27h-9.43v8.75h10.51v2.63h-13.64v-24.26h13.1v2.63h-9.97v7.67h9.43v2.59Z"/><path class="b" d="M602.9,1158.74v2.34h-8.89v-2.34h8.89Z"/><path class="b" d="M624.17,1168.85c-1.15,.58-3.46,1.15-6.41,1.15-6.84,0-11.99-4.32-11.99-12.27s5.15-12.74,12.67-12.74c3.02,0,4.93,.65,5.76,1.08l-.76,2.56c-1.19-.58-2.88-1.01-4.9-1.01-5.69,0-9.47,3.64-9.47,10.01,0,5.94,3.42,9.75,9.32,9.75,1.91,0,3.85-.4,5.11-1.01l.65,2.48Z"/><path class="b" d="M648.07,1157.26c0,8.35-5.08,12.78-11.27,12.78s-10.91-4.97-10.91-12.31c0-7.7,4.79-12.74,11.27-12.74s10.91,5.07,10.91,12.27Zm-18.83,.4c0,5.18,2.81,9.83,7.74,9.83s7.78-4.57,7.78-10.08c0-4.82-2.52-9.86-7.74-9.86s-7.78,4.79-7.78,10.12Z"/><path class="b" d="M652.14,1145.38h3.13v21.63h10.37v2.63h-13.5v-24.26Z"/><path class="b" d="M669.14,1145.71c1.37-.29,3.53-.5,5.72-.5,3.13,0,5.15,.54,6.66,1.76,1.26,.94,2.02,2.38,2.02,4.28,0,2.34-1.55,4.39-4.1,5.33v.07c2.3,.58,5,2.48,5,6.08,0,2.09-.83,3.67-2.05,4.86-1.69,1.55-4.43,2.27-8.39,2.27-2.16,0-3.82-.14-4.86-.29v-23.87Zm3.13,9.94h2.84c3.31,0,5.26-1.73,5.26-4.07,0-2.84-2.16-3.96-5.33-3.96-1.44,0-2.27,.11-2.77,.22v7.81Zm0,11.63c.61,.11,1.51,.14,2.63,.14,3.24,0,6.23-1.19,6.23-4.71,0-3.31-2.84-4.68-6.26-4.68h-2.59v9.25Z"/><path class="b" d="M709.38,1157.26c0,8.35-5.08,12.78-11.27,12.78s-10.91-4.97-10.91-12.31c0-7.7,4.79-12.74,11.27-12.74s10.91,5.07,10.91,12.27Zm-18.83,.4c0,5.18,2.81,9.83,7.74,9.83s7.77-4.57,7.77-10.08c0-4.82-2.52-9.86-7.74-9.86s-7.77,4.79-7.77,10.12Z"/><path class="b" d="M713.02,1165.83c1.4,.86,3.46,1.58,5.62,1.58,3.2,0,5.08-1.69,5.08-4.14,0-2.27-1.3-3.56-4.57-4.82-3.96-1.4-6.41-3.46-6.41-6.88,0-3.78,3.13-6.59,7.85-6.59,2.48,0,4.28,.58,5.36,1.19l-.86,2.55c-.79-.43-2.41-1.15-4.61-1.15-3.31,0-4.57,1.98-4.57,3.64,0,2.27,1.48,3.38,4.82,4.68,4.1,1.58,6.19,3.56,6.19,7.13,0,3.74-2.77,6.98-8.5,6.98-2.34,0-4.9-.68-6.19-1.55l.79-2.63Z"/><path class="b" d="M748.15,1168.85c-1.15,.58-3.46,1.15-6.41,1.15-6.84,0-11.99-4.32-11.99-12.27s5.15-12.74,12.67-12.74c3.02,0,4.93,.65,5.76,1.08l-.76,2.56c-1.19-.58-2.88-1.01-4.9-1.01-5.69,0-9.47,3.64-9.47,10.01,0,5.94,3.42,9.75,9.32,9.75,1.91,0,3.85-.4,5.11-1.01l.65,2.48Z"/></g></g></svg>