<?xml version="1.0" encoding="UTF-8"?><svg id="a" xmlns="http://www.w3.org/2000/svg" viewBox="0 0 1250 1397"><defs><style>.b{fill:#ffb039;}.b,.c,.d,.e,.f,.g,.h,.i{stroke:#fff;stroke-miterlimit:10;stroke-width:5px;}.c{fill:#33248f;}.d{fill:#f39200;}.e{fill:#8c809e;}.f{fill:#95a021;}.g{fill:#ff8a9f;}.h{fill:#00a19a;}.i{fill:#98432e;}</style></defs><path class="e" d="M166.7,979.05c36-3,121.53-18.21,121.53-18.21,0,0,33.47-34.79,42.47-65.79s44.62-100.19,78.31-35.6c33.69,64.6,12.69,92.6,12.69,92.6,0,0-19,64-1,77s52,44,64,30,71-36,84-73,10.92-115.19,32.46-126.6c21.54-11.4,60.09-91.59,60.09-91.59,0,0-7.45-48.95,0-76.38s-5.55-86.43-5.55-86.43c0,0-49,12-52,17s-10-63-10-63l26-82-103-99-32.05-15.04-29.01,15.98-14.71,9.81s-7.71,3.5-13.66,6.3c-5.95,2.8-18.56,9.11-18.56,9.11l-18.21,2.45h-8.76l-28.02,11.91h-10.16s-5.6,19.96-7.71,22.07c-2.1,2.1-11.56-.35-11.56,0s-25.22,19.96-25.92,22.07c-.7,2.1-2.8,7.71-2.8,7.71,0,0-9.81,5.95-15.41,16.81-5.6,10.86-18.21,15.76-18.21,15.76,0,0-9.46,7.36-11.21,11.91-1.75,4.55-5.25,13.31-6.65,19.26-1.4,5.95-9.11,23.12-7,27.32,2.1,4.2-.36,23.47-.36,23.47l-6.99,16.46s-2.1,3.15-8.76,0c-6.65-3.15,0,10.16,0,10.16l-4.9,23.82s.7,12.26,2.1,15.06c1.4,2.8,7,13.66-.7,25.57-7.71,11.91-15.76,37.48-15.76,37.48l-63.39,123.64s-21.36,38.18-22.77,43.43c-.63,2.37-7.66,19.87-15.19,38.4,20.44,29.84,46.99,61.72,66.33,60.1Z"/><path class="c" d="M977.15,347.22l-161.65-17.72-190,115-38.21,1.39,32.42,31.16-26,82s7,68,10,63,52-17,52-17c0,0,13,59,5.55,86.43s0,76.38,0,76.38c0,0-38.55,80.19-60.09,91.59-21.54,11.4-19.46,89.6-32.46,126.6s-72,59-84,73c-1.62,1.89-3.65,2.95-5.97,3.36-29.79,66.93-77.67,186.94-92.69,296.54,2.12,1.08,3.42,1.78,3.42,1.78,0,0,65.5,8.41,69.35,11.56,3.85,3.15,41.68,17.51,41.68,17.51h150.71s167.47-49.08,237.8-93.83c18.51-37.49,39.76-88.64,34.64-117.31-8.09-45.29-14.79-51.16-17.49-54.23-.21-.24-11.99-16.67-12.29-16.78-4.44-1.7-28.69-22.01-47.18-48.82-17.49-25.37-23.62-36.74-13.99-78.72,9.62-41.98-31.49-31.49-31.49-31.49,0,0-45.48,3.5-55.1-33.67-5.18-20.02-13.35-42.71-19.78-59.38-4.85-12.58,4.58-26.1,18.06-25.84,7.41,.14,16.45,.62,27.3,1.69,50.18,4.96,95.34-16.54,98.62-25.37,.19-.51,37.1-54,37.61-54.21l23.11-35.67c.33-.14,.62-.37,.83-.66,20.77-28.46,31.16-32.79,31.16-32.79l36.62-8.94s34.23-16.42,42.1-40.04c7.87-23.62,0-63.19,0-63.19l69.97,9.84,.15-.46-44.34-175.42-90.35-57.28Z"/><path class="f" d="M82.99,1203.47c-1.05,5.25,6.3,7.36,6.3,7.36,0,0,5.25,19.26,8.41,23.12,3.15,3.85,7.71,4.2,7.71,4.2l23.12-9.81s8.76,6.65,6.65,6.65-7.36,.7-7.36,.7c0,0,2.45,5.25-1.05,5.25h-11.91l-1.05,6.65,70.75,14.71s-5.6,2.8-5.95,5.95-15.41,0-15.41,0c0,0-1.05,5.25,2.45,5.6,3.5,.35,33.27,7,33.27,7,0,0,19.96,1.05,21.01,0,1.05-1.05,8.41-10.51,11.21-12.61s12.61-3.85,12.61-3.85h12.61l6.3,1.75s6.65,10.16,7,11.21c.35,1.05,2.1,10.86,.35,9.81-1.75-1.05-14.71-5.95-14.71-5.95,0,0-11.91,6.3-19.96,8.76-8.06,2.45-26.97,7.71-28.02,6.3-1.05-1.4-36.43-8.06-36.43-8.06,0,0-21.36-.7-23.82-5.6-2.45-4.9-11.56-10.16-11.56-10.16-1.18,.35-2.44-.09-3.14-1.1-.69-.99-2.43-2.35-6.31-4.16-9.81-4.55-20.31-11.91-20.31-11.91l-7-.35s9.11,9.46,11.21,10.51c2.1,1.05,17.51,15.06,17.51,15.06,0,0,18.91,28.02,22.42,29.07,3.5,1.05,47.63,7.36,47.63,7.36,0,0,66.9,15.41,70.75,15.06,3.85-.35-2.45,12.96-2.45,12.96,0,0,73.2,7,81.96,2.45,7.03-3.66,29.62,7.13,38.26,11.53,9.65-70.41,32.86-145.1,56.12-207.27-43.91-14.6-136.5-39.46-158.95,1.55-29.7,54.27-43.92,43.31-43.92,43.31l-156.41,5.2c.15,.71,.2,1.31,.12,1.74Z"/><path class="h" d="M442.15,1151.68c12.95-34.61,25.92-65.33,36.57-89.27-14.92,2.59-42.46-22.11-58.03-33.36-18-13,1-77,1-77,0,0,21-28-12.69-92.6-33.69-64.6-69.31,4.6-78.31,35.6s-42.47,65.79-42.47,65.79c0,0-27.22,4.84-57.41,9.6,6.27,20.69,15.17,45.01,24.94,56.34,18.75,21.73,76.88,17.6,48.31,51.66-28.57,34.06-41.55,52.32-41.55,52.32l18.28,26.79c.79-1.39,1.6-2.83,2.41-4.32,22.45-41.01,115.04-16.15,158.95-1.55Z"/><path class="i" d="M163.29,1096.6c8.23-10.47,1.75-24.76-8.05-37.45-19.29,4.01-26.17,17.16-44.42,16.68-14.84-.39-42.23-18.93-62.71-34.51l-18.71,42.72s-18.91,48.33,3.15,75.65c0,0,21.71,12.26,27.67,11.21,5.47-.96,20.96,22.86,22.65,30.83l63.32-2.1c-5.14-13.81-11.35-30.93-14.1-40.35-5.12-17.52,12.55-38.95,31.21-62.67Z"/><path class="b" d="M280.79,1157.55l-18.28-26.79s11.85-16.64,37.77-47.79c-32.14-6.14-83.25-16.03-113.71-22.63-13.58-2.94-23.49-2.82-31.34-1.19,9.81,12.69,16.29,26.98,8.05,37.45-18.66,23.73-36.32,45.15-31.21,62.67,2.75,9.43,8.96,26.55,14.1,40.35l93.1-3.09s13.45,10.37,41.51-38.99Z"/><path class="g" d="M186.58,1060.33c30.45,6.6,81.57,16.49,113.71,22.63,1.23-1.48,2.48-2.98,3.78-4.53,28.57-34.06-29.57-29.94-48.31-51.66-9.77-11.33-18.66-35.65-24.94-56.34-23.33,3.68-48.42,7.31-64.12,8.61-19.34,1.61-45.9-30.26-66.33-60.1-9.19,22.6-19.13,46.71-19.13,46.71l-33.13,75.66c20.48,15.58,47.87,34.12,62.71,34.51,25.68,.68,28.84-25.65,75.76-15.49Z"/><path class="d" d="M1136.18,506.04s29.74,29.74,41.11-7.87c11.37-37.61,42.86-59.48,42.86-59.48l-31.49-56.85s-23.62-28.86-17.49-41.11c3.55-7.09,11.49-16.53,17.55-23.21,3.12-3.44,8.29-4.83,12.32-2.52,1.44,.83-.41-5.06-15.87-35.49-13.42-26.42-25.23-46.61-33.89-60.47-7.17-11.47-1.36-26.61,11.63-30.37h0c16.13-4.03,22.66-23.42,12.25-36.39l-88.83-110.68s-27.01-19.81-70.7-29.39c-61.18,35.56-113.65,68.66-113.65,68.66l-48.45,72.93s-1.05,13.31-3.85,12.96-16.46,4.2-18.21,7.36-26.97,16.81-26.97,16.81c0,0-39.23,14.71-42.73,19.26-3.5,4.55-11.56,9.46-16.11,10.86-4.55,1.4-27.32,4.55-27.32,4.55,0,0-8.76-3.15-7.71,5.25,1.05,8.41,16.46,13.31,16.46,13.31l20.66,9.11-2.87,2.01c-.41,.28-.9,.41-1.39,.34-4.65-.64-29.23-4.15-32.95-7.95-4.12-4.2-8.67,.35-8.67,.35l-10.16,21.72s-30.12,20.66-35.02,24.87c-4.9,4.2-14.01,8.76-23.47,14.01-9.46,5.25-22.07,10.86-28.37,12.61-6.3,1.75-16.46,3.85-17.86,5.25-1.4,1.4-11.91,0-11.91,0,0,0-.7-9.96-22.77,.62-11.53,5.53-15.02,7.4-15.73,7.93-3.69,.56-16.24,2.56-16.84,4.05-.7,1.75-29.77,21.01-29.77,21.01l-14.74,8.12c.42,27.02,3.57,62.38,16.32,70.49,19.24,12.25-39.36,67.35-39.36,67.35l9.62,39.36h33.62l115.95-43.73s54.23,10.5,58.6,20.12c4.37,9.62,77.85-33.24,81.34-53.35,3.5-20.12,36.74,15.74,36.74,15.74,0,0,55.1-69.1,55.1-86.59s57.73-7.87,65.6-7.87,58.6-1.75,58.6-1.75c0,0,12.25,30.61,27.99,36.74,15.74,6.12,48.98,35.86,48.98,35.86,0,0-61.23,20.12-67.35,31.49s10.5,23.62,10.5,23.62l36.95,29.74,18.11,24.94,69.14,10.04,24.49-74.35Z"/></svg>